<mxfile host="app.diagrams.net" agent="Mozilla/5.0 (X11; Linux x86_64) AppleWebKit/537.36 (KHTML, like Gecko) Chrome/129.0.0.0 Safari/537.36" version="24.8.4">
  <diagram name="Страница — 1" id="ugE3qtjWM7i1w_WjIpXW">
    <mxGraphModel dx="1434" dy="788" grid="1" gridSize="10" guides="1" tooltips="1" connect="1" arrows="1" fold="1" page="1" pageScale="1" pageWidth="827" pageHeight="1169" math="0" shadow="0">
      <root>
        <mxCell id="0" />
        <mxCell id="1" parent="0" />
        <mxCell id="SOP-DNlCB-dcbDB7mBKT-14" value="student" style="swimlane;fontStyle=0;childLayout=stackLayout;horizontal=1;startSize=26;horizontalStack=0;resizeParent=1;resizeParentMax=0;resizeLast=0;collapsible=1;marginBottom=0;align=center;fontSize=14;" parent="1" vertex="1">
          <mxGeometry x="254" y="190" width="206" height="296" as="geometry" />
        </mxCell>
        <mxCell id="SOP-DNlCB-dcbDB7mBKT-15" value="PK id&amp;nbsp; &amp;nbsp; &amp;nbsp; &amp;nbsp; &amp;nbsp; &amp;nbsp; &amp;nbsp; &amp;nbsp; &amp;nbsp; &amp;nbsp; &amp;nbsp; &amp;nbsp; &amp;nbsp; &amp;nbsp; &amp;nbsp; &amp;nbsp; INTEGER" style="text;strokeColor=none;fillColor=none;spacingLeft=4;spacingRight=4;overflow=hidden;rotatable=0;points=[[0,0.5],[1,0.5]];portConstraint=eastwest;fontSize=12;whiteSpace=wrap;html=1;" parent="SOP-DNlCB-dcbDB7mBKT-14" vertex="1">
          <mxGeometry y="26" width="206" height="30" as="geometry" />
        </mxCell>
        <mxCell id="SOP-DNlCB-dcbDB7mBKT-16" value="&amp;nbsp; &amp;nbsp; &amp;nbsp; first_name&amp;nbsp; &amp;nbsp; &amp;nbsp; &amp;nbsp; &amp;nbsp; &amp;nbsp; &amp;nbsp; &amp;nbsp; &amp;nbsp; TEXT" style="text;strokeColor=none;fillColor=none;spacingLeft=4;spacingRight=4;overflow=hidden;rotatable=0;points=[[0,0.5],[1,0.5]];portConstraint=eastwest;fontSize=12;whiteSpace=wrap;html=1;" parent="SOP-DNlCB-dcbDB7mBKT-14" vertex="1">
          <mxGeometry y="56" width="206" height="30" as="geometry" />
        </mxCell>
        <mxCell id="SOP-DNlCB-dcbDB7mBKT-17" value="&amp;nbsp; &amp;nbsp; &amp;nbsp; name&amp;nbsp; &amp;nbsp; &amp;nbsp; &amp;nbsp; &amp;nbsp; &amp;nbsp; &amp;nbsp; &amp;nbsp; &amp;nbsp; &amp;nbsp; &amp;nbsp; &amp;nbsp; &amp;nbsp; TEXT" style="text;strokeColor=none;fillColor=none;spacingLeft=4;spacingRight=4;overflow=hidden;rotatable=0;points=[[0,0.5],[1,0.5]];portConstraint=eastwest;fontSize=12;whiteSpace=wrap;html=1;" parent="SOP-DNlCB-dcbDB7mBKT-14" vertex="1">
          <mxGeometry y="86" width="206" height="30" as="geometry" />
        </mxCell>
        <mxCell id="SOP-DNlCB-dcbDB7mBKT-19" value="&amp;nbsp; &amp;nbsp; &amp;nbsp; patronymic&amp;nbsp; &amp;nbsp; &amp;nbsp; &amp;nbsp; &amp;nbsp; &amp;nbsp; &amp;nbsp; &amp;nbsp; &amp;nbsp; TEXT" style="text;strokeColor=none;fillColor=none;spacingLeft=4;spacingRight=4;overflow=hidden;rotatable=0;points=[[0,0.5],[1,0.5]];portConstraint=eastwest;fontSize=12;whiteSpace=wrap;html=1;" parent="SOP-DNlCB-dcbDB7mBKT-14" vertex="1">
          <mxGeometry y="116" width="206" height="30" as="geometry" />
        </mxCell>
        <mxCell id="SOP-DNlCB-dcbDB7mBKT-22" value="&amp;nbsp; &amp;nbsp; &amp;nbsp; telegram&amp;nbsp; &amp;nbsp; &amp;nbsp; &amp;nbsp; &amp;nbsp; &amp;nbsp; &amp;nbsp; &amp;nbsp; &amp;nbsp; &amp;nbsp; &amp;nbsp;TEXT" style="text;strokeColor=none;fillColor=none;spacingLeft=4;spacingRight=4;overflow=hidden;rotatable=0;points=[[0,0.5],[1,0.5]];portConstraint=eastwest;fontSize=12;whiteSpace=wrap;html=1;" parent="SOP-DNlCB-dcbDB7mBKT-14" vertex="1">
          <mxGeometry y="146" width="206" height="30" as="geometry" />
        </mxCell>
        <mxCell id="SOP-DNlCB-dcbDB7mBKT-21" value="&amp;nbsp; &amp;nbsp; &amp;nbsp; email&amp;nbsp; &amp;nbsp; &amp;nbsp; &amp;nbsp; &amp;nbsp; &amp;nbsp; &amp;nbsp; &amp;nbsp; &amp;nbsp; &amp;nbsp; &amp;nbsp; &amp;nbsp; &amp;nbsp; &amp;nbsp;TEXT" style="text;strokeColor=none;fillColor=none;spacingLeft=4;spacingRight=4;overflow=hidden;rotatable=0;points=[[0,0.5],[1,0.5]];portConstraint=eastwest;fontSize=12;whiteSpace=wrap;html=1;" parent="SOP-DNlCB-dcbDB7mBKT-14" vertex="1">
          <mxGeometry y="176" width="206" height="30" as="geometry" />
        </mxCell>
        <mxCell id="SOP-DNlCB-dcbDB7mBKT-20" value="&amp;nbsp; &amp;nbsp; &amp;nbsp; phone_number&amp;nbsp; &amp;nbsp; &amp;nbsp; &amp;nbsp; &amp;nbsp; &amp;nbsp;TEXT" style="text;strokeColor=none;fillColor=none;spacingLeft=4;spacingRight=4;overflow=hidden;rotatable=0;points=[[0,0.5],[1,0.5]];portConstraint=eastwest;fontSize=12;whiteSpace=wrap;html=1;" parent="SOP-DNlCB-dcbDB7mBKT-14" vertex="1">
          <mxGeometry y="206" width="206" height="30" as="geometry" />
        </mxCell>
        <mxCell id="IYhdNa84on3Fd5ZApfqV-1" value="&amp;nbsp; &amp;nbsp; &amp;nbsp; git&amp;nbsp; &amp;nbsp; &amp;nbsp; &amp;nbsp; &amp;nbsp; &amp;nbsp; &amp;nbsp; &amp;nbsp; &amp;nbsp; &amp;nbsp; &amp;nbsp; &amp;nbsp; &amp;nbsp; &amp;nbsp; &amp;nbsp; &amp;nbsp; TEXT" style="text;strokeColor=none;fillColor=none;spacingLeft=4;spacingRight=4;overflow=hidden;rotatable=0;points=[[0,0.5],[1,0.5]];portConstraint=eastwest;fontSize=12;whiteSpace=wrap;html=1;" vertex="1" parent="SOP-DNlCB-dcbDB7mBKT-14">
          <mxGeometry y="236" width="206" height="30" as="geometry" />
        </mxCell>
        <mxCell id="IYhdNa84on3Fd5ZApfqV-2" value="&amp;nbsp; &amp;nbsp; &amp;nbsp; birthdate&amp;nbsp; &amp;nbsp; &amp;nbsp; &amp;nbsp; &amp;nbsp; &amp;nbsp; &amp;nbsp; &amp;nbsp; &amp;nbsp; &amp;nbsp; &amp;nbsp;TEXT" style="text;strokeColor=none;fillColor=none;spacingLeft=4;spacingRight=4;overflow=hidden;rotatable=0;points=[[0,0.5],[1,0.5]];portConstraint=eastwest;fontSize=12;whiteSpace=wrap;html=1;" vertex="1" parent="SOP-DNlCB-dcbDB7mBKT-14">
          <mxGeometry y="266" width="206" height="30" as="geometry" />
        </mxCell>
      </root>
    </mxGraphModel>
  </diagram>
</mxfile>
